<?xml version="1.0" encoding="utf-8"?>
<!-- Generator: Adobe Illustrator 17.0.0, SVG Export Plug-In . SVG Version: 6.00 Build 0)  -->
<!DOCTYPE svg PUBLIC "-//W3C//DTD SVG 1.1//EN" "http://www.w3.org/Graphics/SVG/1.1/DTD/svg11.dtd">
<svg version="1.1" id="Logo_G1" xmlns="http://www.w3.org/2000/svg" xmlns:xlink="http://www.w3.org/1999/xlink" x="0px" y="0px"
	 width="724px" height="173px" viewBox="0 0 724 173" enable-background="new 0 0 724 173" xml:space="preserve">
<g id="Proyeccion_G1" display="none">
	<g id="Letras_1_" display="inline">
		<g>
			<path fill="#5B5B5B" d="M676.156,33.846h-26.985V16.802h46.869V56.57l-19.884,18.464h-58.231L598.041,56.57V-5.922l19.884-18.464
				h66.754v17.044h-57.522l-9.231,8.521v48.29l9.231,8.521h39.769l9.231-8.521V33.846z"/>
			<path fill="#5B5B5B" d="M713.083,75.034V57.99h21.305V-7.342h-21.305v-17.044h41.188V57.99h21.305v17.044H713.083z"/>
		</g>
	</g>
</g>
<g>
	<g id="Logo_CiaaBot">
		<g>
			<g>
				<g>
					<path fill="#1181AE" d="M82.41,26.452c-15.915,0-28.478,5.3-37.688,15.897c-9.213,10.6-13.818,25.11-13.818,43.534
						c0,18.953,4.44,33.596,13.322,43.93c8.881,10.335,21.544,15.501,37.987,15.501c10.103,0,21.626-1.816,34.569-5.448v14.759
						c-10.038,3.764-22.419,5.646-37.144,5.646c-21.33,0-37.789-6.471-49.377-19.414c-11.59-12.942-17.384-31.333-17.384-55.172
						c0-14.923,2.789-27.998,8.369-39.224c5.58-11.225,13.635-19.876,24.169-25.951c10.532-6.075,22.931-9.113,37.194-9.113
						c15.188,0,28.46,2.773,39.819,8.32l-7.132,14.462C104.333,29.027,93.371,26.452,82.41,26.452z"/>
					<path fill="#1181AE" d="M148.378,158.289V13.476h16.839v144.813H148.378z"/>
				</g>
				<path fill="#1181AE" d="M185.027,158.289h17.037l17.829-46.059c0,0,4.629-11.303,5.943-15.155
					c5.118-15.006,18.215-44.592,23.277-65.77c3.351,14.829,18.035,48.959,23.574,65.77c1.255,3.808,5.25,15.155,5.25,15.155
					l18.027,46.059h17.433L256.443,12.882h-14.164L185.027,158.289z"/>
				<path fill="#1181AE" d="M282.654,31.306c3.351,14.829,18.035,48.959,23.574,65.77c1.255,3.808,5.25,15.155,5.25,15.155
					l18.027,46.059h17.433L289.983,12.882h-14.164"/>
			</g>
			<g>
				<path fill="#1181AE" d="M462.76,12.467V67.18l-12.17,18.004l12.17,18.103v53.607h-99.167V12.467H462.76z M391.352,37.209v35.704
					h45.359V37.209H391.352z M391.352,96.448v35.704h45.359V96.448H391.352z"/>
				<path fill="#1181AE" d="M582.042,12.467v144.427h-99.167V12.467H582.042z M555.993,37.209h-45.359v94.943h45.359V37.209z"/>
				<path fill="#1181AE" d="M639.67,37.209h-37.515V12.467h99.167v24.742h-33.894v119.685H639.67V37.209z"/>
			</g>
		</g>
	</g>
</g>
</svg>
