<?xml version="1.0" encoding="utf-8"?>
<!-- Generator: Adobe Illustrator 17.0.0, SVG Export Plug-In . SVG Version: 6.00 Build 0)  -->
<!DOCTYPE svg PUBLIC "-//W3C//DTD SVG 1.1//EN" "http://www.w3.org/Graphics/SVG/1.1/DTD/svg11.dtd">
<svg version="1.1" id="Layer_1" xmlns="http://www.w3.org/2000/svg" xmlns:xlink="http://www.w3.org/1999/xlink" x="0px" y="0px"
	 width="828px" height="712px" viewBox="-94.86 72.445 828 712" enable-background="new -94.86 72.445 828 712"
	 xml:space="preserve">
<g>
	<circle fill="#FFD05B" cx="319.14" cy="428.445" r="297.64"/>
	<path fill="#FF7058" d="M136.449,347.721v-27.734c0-19.709,15.932-35.641,35.641-35.641h294.218
		c19.709,0,35.641,15.932,35.641,35.641v27.734H136.449z"/>
	<g>
		<circle fill="#FFFFFF" cx="456.984" cy="317.981" r="11.92"/>
		<circle fill="#FFFFFF" cx="412.138" cy="317.981" r="11.92"/>
		<circle fill="#FFFFFF" cx="367.409" cy="317.981" r="11.92"/>
	</g>
	<path id="SVGCleanerId_0" fill="#324A5E" d="M189.439,468.453v-20.535l72.699-34.225v21.951l-48.033,22.187l48.033,22.777v22.187
		L189.439,468.453z"/>
	<path id="SVGCleanerId_1" fill="#324A5E" d="M339.911,396.698h21.243l-62.903,137.254h-21.125L339.911,396.698z"/>
	<path id="SVGCleanerId_2" fill="#324A5E" d="M448.841,447.918v20.535l-72.699,34.225v-22.187l48.033-22.777l-48.033-22.187v-21.951
		L448.841,447.918z"/>
	<path fill="#FFFFFF" d="M466.308,284.464H171.972c-19.591,0-35.523,15.932-35.523,35.523v216.916
		c0,19.591,15.932,35.523,35.523,35.523h294.454c19.591,0,35.523-15.932,35.523-35.523V319.987
		C501.831,300.396,486.017,284.464,466.308,284.464z"/>
	<path fill="#FF7058" d="M466.308,284.464H171.972c-19.709,0-35.641,15.932-35.641,35.641v27.734h365.5v-27.734
		C501.831,300.396,485.899,284.464,466.308,284.464z"/>
	<g>
		<circle fill="#FFFFFF" cx="456.984" cy="317.981" r="11.92"/>
		<circle fill="#FFFFFF" cx="412.138" cy="317.981" r="11.92"/>
		<circle fill="#FFFFFF" cx="367.409" cy="317.981" r="11.92"/>
	</g>
	<g>
		<path id="SVGCleanerId_0_1_" fill="#324A5E" d="M189.439,468.453v-20.535l72.699-34.225v21.951l-48.033,22.187l48.033,22.777
			v22.187L189.439,468.453z"/>
	</g>
	<g>
		<path id="SVGCleanerId_1_1_" fill="#324A5E" d="M339.911,396.698h21.243l-62.903,137.254h-21.125L339.911,396.698z"/>
	</g>
	<g>
		<path id="SVGCleanerId_2_1_" fill="#324A5E" d="M448.841,447.918v20.535l-72.699,34.225v-22.187l48.033-22.777l-48.033-22.187
			v-21.951L448.841,447.918z"/>
	</g>
</g>
</svg>
