<?xml version="1.0" encoding="utf-8"?>
<!-- Generator: Adobe Illustrator 17.0.0, SVG Export Plug-In . SVG Version: 6.00 Build 0)  -->
<!DOCTYPE svg PUBLIC "-//W3C//DTD SVG 1.1//EN" "http://www.w3.org/Graphics/SVG/1.1/DTD/svg11.dtd">
<svg version="1.1" id="Layer_1" xmlns="http://www.w3.org/2000/svg" xmlns:xlink="http://www.w3.org/1999/xlink" x="0px" y="0px"
	 width="828px" height="712px" viewBox="-94.86 72.445 828 712" enable-background="new -94.86 72.445 828 712"
	 xml:space="preserve">
<g>
	<path fill="#FF7058" d="M616.78,428.445c0,164.439-133.201,297.64-297.64,297.64S21.5,592.884,21.5,428.445
		c0-164.321,133.201-297.64,297.64-297.64c129.783,0,240.116,83.103,280.901,198.859c8.723,24.754,14.263,51.041,16.149,78.388
		C616.544,414.771,616.78,421.608,616.78,428.445z"/>
	<path fill="#F1543F" d="M67.001,586.518c52.691,83.811,145.814,139.567,252.139,139.567s199.448-55.756,252.139-139.567H67.001z"/>
	<path fill="#324A5E" d="M546.172,548.562H92.108c-3.654,0-6.012,3.89-4.244,7.073l7.191,13.438
		c5.658,10.609,16.621,17.092,28.644,17.092H514.58c12.023,0,22.986-6.601,28.644-17.092l7.191-13.438
		C552.065,552.452,549.826,548.562,546.172,548.562z"/>
	<path fill="#2B3B4E" d="M513.284,548.562H128.061c-1.65,0-3.065-1.297-3.065-3.065V277.562c0-1.65,1.297-3.065,3.065-3.065h385.223
		c1.65,0,3.065,1.297,3.065,3.065v267.935C516.231,547.147,514.934,548.562,513.284,548.562z"/>
	<rect x="143.149" y="303.849" fill="#FFFFFF" width="355.046" height="220.548"/>
	<circle fill="#324A5E" cx="320.672" cy="288.878" r="6.719"/>
	<rect x="184.524" y="323.181" fill="#FFD05B" width="29.941" height="29.941"/>
	<g>
		<rect x="232.382" y="323.181" fill="#E6E9EE" width="70.962" height="10.137"/>
		<rect x="232.382" y="342.984" fill="#E6E9EE" width="39.017" height="10.137"/>
	</g>
	<rect x="338" y="323.181" fill="#54C0EB" width="29.941" height="29.941"/>
	<g>
		<rect x="385.741" y="323.181" fill="#E6E9EE" width="70.962" height="10.137"/>
		<rect x="385.741" y="342.984" fill="#E6E9EE" width="39.017" height="10.137"/>
		<rect x="193.365" y="399.211" fill="#E6E9EE" width="30.884" height="93.948"/>
		<rect x="249.239" y="399.211" fill="#E6E9EE" width="30.884" height="93.948"/>
		<rect x="305.231" y="399.211" fill="#E6E9EE" width="30.884" height="93.948"/>
		<rect x="361.104" y="399.211" fill="#E6E9EE" width="30.884" height="93.948"/>
		<rect x="417.096" y="399.211" fill="#E6E9EE" width="30.884" height="93.948"/>
	</g>
	<g>
		<rect x="193.365" y="438.111" fill="#4CDBC4" width="30.884" height="55.049"/>
		<rect x="249.239" y="458.739" fill="#4CDBC4" width="30.884" height="34.42"/>
		<rect x="305.231" y="417.129" fill="#4CDBC4" width="30.884" height="76.031"/>
		<rect x="361.104" y="443.062" fill="#4CDBC4" width="30.884" height="50.216"/>
		<rect x="417.096" y="425.027" fill="#4CDBC4" width="30.884" height="68.133"/>
	</g>
	<polygon fill="#ACB3BA" points="370.063,557.049 268.217,557.049 259.612,548.562 378.668,548.562 	"/>
</g>
</svg>
