<?xml version="1.0" encoding="utf-8"?>
<!-- Generator: Adobe Illustrator 17.0.0, SVG Export Plug-In . SVG Version: 6.00 Build 0)  -->
<!DOCTYPE svg PUBLIC "-//W3C//DTD SVG 1.1//EN" "http://www.w3.org/Graphics/SVG/1.1/DTD/svg11.dtd">
<svg version="1.1" id="Layer_1" xmlns="http://www.w3.org/2000/svg" xmlns:xlink="http://www.w3.org/1999/xlink" x="0px" y="0px"
	 width="828px" height="712px" viewBox="-94.86 72.445 828 712" enable-background="new -94.86 72.445 828 712"
	 xml:space="preserve">
<g>
	<g>
		<circle fill="#54C0EB" cx="319.14" cy="428.445" r="297.64"/>
	</g>
	<g>
		<path fill="#324A5E" d="M405.385,414.383c3.281,8.906,8.437,19.218,14.999,29.53c17.343,26.717,38.435,43.591,46.872,37.967
			c8.437-5.625,1.406-31.873-15.468-58.122c-6.562-10.312-14.062-19.218-20.624-25.78L405.385,414.383z"/>
		<path fill="#324A5E" d="M475.694,521.721c0,0,7.968,20.624-6.093,51.091c-0.937,2.344-3.75,3.75-6.562,3.75l0,0
			c-4.219-0.469-6.562-4.687-5.625-8.437c1.875-5.625,3.75-14.062,3.75-21.561c0-7.031-8.906-10.312-13.593-5.156
			c-1.875,1.875-3.281,4.687-4.219,7.968c-0.937,3.281-4.687,4.687-7.5,3.75l0,0c-3.281-0.937-5.156-4.687-3.75-7.968
			C436.321,532.971,449.445,508.128,475.694,521.721z"/>
	</g>
	<path fill="#FFFFFF" d="M488.35,532.971c0,11.249-2.812,19.218-7.031,23.905c-11.249-22.03-32.342-30.936-44.529-34.686
		c1.406-10.312,4.219-21.093,8.437-29.061c-2.344-4.219-3.75-8.906-4.687-14.53c20.624-10.312,29.53-20.624,33.748-28.123
		c3.75,5.625,6.093,13.593,6.093,22.03c0,6.093-0.937,11.718-2.812,16.405C484.131,500.16,488.35,517.971,488.35,532.971z"/>
	<circle fill="#E6E9EE" cx="415.697" cy="406.415" r="29.998"/>
	<g>
		<path fill="#324A5E" d="M233.363,414.383c-3.281,8.906-8.437,19.218-14.999,29.53c-17.343,26.717-38.435,43.591-46.872,37.967
			c-8.437-5.625-1.406-31.873,15.468-58.122c6.562-10.312,14.062-19.218,20.624-25.78L233.363,414.383z"/>
		<path fill="#324A5E" d="M163.055,521.721c0,0-7.968,20.624,6.093,51.091c0.937,2.344,3.75,3.75,6.562,3.75l0,0
			c4.219-0.469,6.562-4.687,5.625-8.437c-1.875-5.625-3.75-14.062-3.75-21.561c0-7.031,8.906-10.312,13.593-5.156
			c1.875,1.875,3.281,4.687,4.219,7.968c0.937,3.281,4.687,4.687,7.5,3.75l0,0c3.281-0.937,5.156-4.687,3.75-7.968
			C202.428,532.971,188.835,508.128,163.055,521.721z"/>
	</g>
	<path fill="#FFFFFF" d="M149.93,532.971c0,11.249,2.812,19.218,7.031,23.905c11.249-22.03,32.342-30.936,44.529-34.686
		c-1.406-10.312-4.219-21.093-8.437-29.061c2.344-4.219,3.75-8.906,4.687-14.53c-20.624-10.312-29.53-20.624-33.748-28.123
		c-3.75,5.625-6.093,13.593-6.093,22.03c0,6.093,0.937,11.718,2.812,16.405C154.618,500.16,149.93,517.971,149.93,532.971z"/>
	<circle fill="#E6E9EE" cx="223.052" cy="406.415" r="29.998"/>
	<rect x="360.857" y="577.968" fill="#324A5E" width="28.123" height="73.59"/>
	<path fill="#FFFFFF" d="M401.636,645.464c-3.75-4.219-9.375-6.562-14.999-6.562h-23.905c-5.156,0-11.249,2.344-14.999,6.562
		c-7.031,7.5-3.75,18.28,8.906,18.28h36.092C405.385,663.745,408.666,652.964,401.636,645.464z"/>
	<rect x="249.769" y="577.968" fill="#324A5E" width="28.123" height="73.59"/>
	<path fill="#FFFFFF" d="M290.548,645.464c-3.75-4.219-9.375-6.562-14.999-6.562h-23.905c-5.156,0-11.249,2.344-14.999,6.562
		c-7.031,7.5-3.75,18.28,8.906,18.28h36.092C294.298,663.745,297.579,652.964,290.548,645.464z"/>
	<path fill="#84DBFF" d="M135.4,662.339c50.622,39.842,114.369,63.747,183.74,63.747s133.118-23.905,183.74-63.747H135.4z"/>
	<g>
		<polygon fill="#324A5E" points="328.983,231.112 309.297,231.112 315.859,181.896 322.421,181.896 		"/>
		<path fill="#324A5E" d="M377.731,522.19h-18.749c-4.219,0-7.968-2.812-7.968-6.093v-35.154c0-2.812,2.812-4.687,6.562-4.687H370.7
			c3.75,0,7.031,1.875,7.5,4.687l6.093,35.154C384.761,519.846,381.949,522.19,377.731,522.19z"/>
	</g>
	<path fill="#FFFFFF" d="M391.324,600.467h-34.217c-6.562,0-11.718-5.156-11.718-11.249l0.469-72.184
		c0-4.687,4.219-7.968,9.374-7.968h23.436c5.156,0,9.843,3.75,10.781,7.968l11.718,72.184
		C402.104,594.842,397.417,600.467,391.324,600.467z"/>
	<path fill="#324A5E" d="M279.767,522.19h-18.749c-4.219,0-7.031-2.812-6.562-6.093l6.093-35.154c0.469-2.812,3.75-4.687,7.5-4.687
		h13.593c3.75,0,6.562,1.875,6.562,4.687v35.154C287.735,519.846,283.986,522.19,279.767,522.19z"/>
	<path fill="#FFFFFF" d="M281.173,600.467h-34.217c-6.562,0-10.781-5.156-9.843-11.249l11.718-72.184
		c0.937-4.687,5.625-7.968,10.781-7.968h23.436c5.156,0,9.374,3.75,9.374,7.968l0.469,72.184
		C292.891,594.842,287.735,600.467,281.173,600.467z"/>
	<rect x="293.36" y="301.421" fill="#324A5E" width="51.56" height="64.215"/>
	<g>
		<path fill="#FFFFFF" d="M367.419,327.201H271.33c-6.093,0-11.249-5.156-11.249-11.249v-71.715c0-6.093,5.156-11.249,11.249-11.249
			h96.557c6.093,0,11.249,5.156,11.249,11.249v71.715C378.668,322.045,373.512,327.201,367.419,327.201z"/>
		<path fill="#FFFFFF" d="M387.574,485.161H251.175c-8.437,0-15.468-7.031-15.468-15.468V367.98c0-8.437,7.031-15.468,15.468-15.468
			h136.399c8.437,0,15.468,7.031,15.468,15.468v101.713C403.042,478.13,396.011,485.161,387.574,485.161z"/>
	</g>
	<circle fill="#FF7058" cx="350.076" cy="262.048" r="14.999"/>
	
		<ellipse transform="matrix(-0.7077 -0.7065 0.7065 -0.7077 406.6426 682.0403)" fill="#FFFFFF" cx="344.407" cy="256.903" rx="2.812" ry="5.625"/>
	<circle fill="#FF7058" cx="288.673" cy="262.048" r="14.999"/>
	
		<ellipse transform="matrix(-0.7077 -0.7066 0.7066 -0.7077 301.9756 638.5334)" fill="#FFFFFF" cx="283.087" cy="256.794" rx="2.813" ry="5.625"/>
	<path fill="#CED5E0" d="M346.326,232.987c-7.031-7.031-16.874-11.249-27.186-11.249s-20.155,4.219-27.186,11.249H346.326z"/>
	<circle fill="#FFFFFF" cx="319.14" cy="182.365" r="11.249"/>
</g>
</svg>
